<?xml version="1.0" encoding="UTF-8"?>
<svg id="Layer_1" data-name="Layer 1" xmlns="http://www.w3.org/2000/svg" version="1.1" viewBox="0 0 928 687.1">
  <defs>
    <style>
      .cls-1 {
        fill: #3e8dbc;
      }

      .cls-1, .cls-2, .cls-3, .cls-4 {
        stroke-width: 0px;
      }

      .cls-2 {
        display: none;
      }

      .cls-2, .cls-4 {
        fill: #e7c623;
      }

      .cls-3 {
        fill: #99589c;
      }
    </style>
  </defs>
  <g>
    <path class="cls-4" d="M464-67.1c135.2,0,261.7,66.5,338.3,177.8,76.7,111.4,93.6,253.3,45.5,379.5l-191.9-73.3c24.1-63.1,15.6-134.1-22.7-189.8-38.4-55.7-101.6-88.9-169.2-88.9V-67.3h0Z"/>
    <path class="cls-3" d="M209.1,665.7C32.4,526.1,1.4,270.1,139.3,92l162.4,125.8c-69,89-53.4,217,34.9,286.9l-127.5,161.1Z"/>
    <path class="cls-1" d="M847.8,490.1c-46.7,122.2-148.8,214.9-274.8,249.6-126.2,34.7-261.3,7.3-363.8-73.9l127.5-161.1c51.3,40.6,118.9,54.4,182,37s114.1-63.7,137.4-124.9l191.9,73.3h-.1Z"/>
  </g>
  <polygon class="cls-2" points="486 248.1 658 346.1 487.2 446.1 486 248.1"/>
</svg>